<svg width="24" height="24" viewBox="0 0 24 24" fill="none" xmlns="http://www.w3.org/2000/svg">
<path d="M3 3L21 21" stroke="#40A7EA" stroke-width="2" stroke-linecap="round" stroke-linejoin="round"/>
<path d="M10.584 10.5869C10.2087 10.9619 9.99775 11.4707 9.99756 12.0012C9.99737 12.5317 10.2079 13.0406 10.583 13.4159C10.958 13.7912 11.4667 14.0021 11.9973 14.0023C12.5278 14.0025 13.0367 13.7919 13.412 13.4169" stroke="#40A7EA" stroke-width="2" stroke-linecap="round" stroke-linejoin="round"/>
<path d="M22 12.0001C19.333 7.33306 16 5.00006 12 5.00006C11.1082 4.9969 10.2204 5.11978 9.363 5.36506L10.9942 5.05006L13 5.05006L15.2292 5.55822L17 6.42061L18.5 7.53758L19.9283 9.00006L22 12.0001ZM22 12.0001C21.222 13.3611 20.388 14.5241 19.497 15.4881L22 12.0001ZM17.357 17.3491C15.726 18.4491 13.942 19.0001 12 19.0001C8 19.0001 4.667 16.6671 2 12.0001C3.369 9.60506 4.913 7.82506 6.632 6.65906" stroke="#40A7EA" stroke-width="2" stroke-linecap="round" stroke-linejoin="round"/>
</svg>
